<svg width="14" height="14" viewBox="0 0 14 14" fill="none" xmlns="http://www.w3.org/2000/svg">
    <path fill-rule="evenodd" clip-rule="evenodd" d="M9.00554 7.29052C9.00554 6.27739 8.18397 5.45581 7.17078 5.45581C6.15765 5.45581 5.33606 6.27739 5.33606 7.29052C5.33606 8.30371 6.15765 9.12528 7.17078 9.12528C8.18397 9.12528 9.00554 8.30371 9.00554 7.29052Z" stroke="white" stroke-linecap="round" stroke-linejoin="round"/>
    <path fill-rule="evenodd" clip-rule="evenodd" d="M7.17068 11.7834C11.8637 11.7834 12.4225 10.3772 12.4225 7.33039C12.4225 5.19476 12.14 4.05205 10.3612 3.56082C10.1978 3.50924 10.0167 3.411 9.86994 3.24951C9.63293 2.98976 9.4598 2.19213 8.88749 1.95082C8.31524 1.71012 6.01691 1.72117 5.45382 1.95082C4.89137 2.18108 4.70838 2.98976 4.47137 3.24951C4.32461 3.411 4.14408 3.50924 3.98014 3.56082C2.20128 4.05205 1.91882 5.19476 1.91882 7.33039C1.91882 10.3772 2.47759 11.7834 7.17068 11.7834Z" stroke="white" stroke-linecap="round" stroke-linejoin="round"/>
    <path d="M10.036 5.25H10.0398" stroke="white" stroke-linecap="round" stroke-linejoin="round"/>
</svg>
