<svg width="12" height="12" viewBox="0 0 12 12" fill="none" xmlns="http://www.w3.org/2000/svg">
    <path d="M2.76188 3.5C4.70713 2.87193 6.9862 2.72787 8 2.75C9.0138 2.77214 9.44155 3.13315 9.75 3.75C10.25 4.75 10.1445 7.24404 9.25 8.04354C8.356 8.84304 4.66508 8.91904 3.43508 8.04354C2.13558 7.11804 2.8145 4.596 2.772 2.8715C2.7975 1.9065 1.75 1.75 1.75 1.75" stroke="#0F0F0F" stroke-linecap="round" stroke-linejoin="round"/>
    <path d="M6.5 5.25H7.8865" stroke="#0F0F0F" stroke-linecap="round" stroke-linejoin="round"/>
    <path fill-rule="evenodd" clip-rule="evenodd" d="M3.632 10.0637C3.782 10.0637 3.904 10.1857 3.904 10.3357C3.904 10.4862 3.782 10.6082 3.632 10.6082C3.4815 10.6082 3.3595 10.4862 3.3595 10.3357C3.3595 10.1857 3.4815 10.0637 3.632 10.0637Z" fill="#0F0F0F" stroke="#0F0F0F" stroke-linecap="round" stroke-linejoin="round"/>
    <path fill-rule="evenodd" clip-rule="evenodd" d="M8.79776 10.0637C8.94826 10.0637 9.07026 10.1857 9.07026 10.3357C9.07026 10.4862 8.94826 10.6082 8.79776 10.6082C8.64776 10.6082 8.52576 10.4862 8.52576 10.3357C8.52576 10.1857 8.64776 10.0637 8.79776 10.0637Z" fill="#0F0F0F" stroke="#0F0F0F" stroke-linecap="round" stroke-linejoin="round"/>
</svg>
