<svg width="12" height="12" viewBox="0 0 12 12" fill="none" xmlns="http://www.w3.org/2000/svg">
    <path fill-rule="evenodd" clip-rule="evenodd" d="M10.4072 4.91011C10.2214 4.12003 9.39676 4.07923 8.73388 4.04611C8.31676 4.02499 7.88524 4.00387 7.70476 3.81715C7.52092 3.62707 7.3774 3.26275 7.23772 2.91043C6.96556 2.22115 6.65692 1.44019 5.8798 1.44019C5.10316 1.44019 4.79501 2.22115 4.52237 2.91043C4.38317 3.26275 4.23917 3.62707 4.05581 3.81715C3.87485 4.00387 3.44333 4.02499 3.02621 4.04611C2.36333 4.07923 1.53869 4.12003 1.35293 4.91011C1.17677 5.65987 1.72733 6.11347 2.21309 6.51379C2.54525 6.78739 2.85917 7.04659 2.92877 7.36339C2.99645 7.67107 2.89469 8.06851 2.79629 8.45347C2.62733 9.11539 2.43533 9.86515 3.07613 10.3485C3.27629 10.4997 3.47933 10.5597 3.67997 10.5597C4.11437 10.5597 4.53773 10.2794 4.90012 10.0394C5.23564 9.81763 5.58268 9.58771 5.8798 9.58771C6.17692 9.58771 6.52444 9.81763 6.85948 10.0394C7.38988 10.3903 8.0494 10.8261 8.68444 10.3485C9.32524 9.86515 9.13324 9.11491 8.9638 8.45251C8.8654 8.06803 8.76412 7.67059 8.83132 7.36339C8.90092 7.04659 9.21484 6.78787 9.547 6.51379C10.0328 6.11347 10.5833 5.65987 10.4072 4.91011Z" fill="#F3D743"/>
</svg>
