<svg width="14" height="14" viewBox="0 0 14 14" fill="none" xmlns="http://www.w3.org/2000/svg">
    <path d="M6.50051 10.4316H2.72485" stroke="#BDBDBD" stroke-linecap="round" stroke-linejoin="round"/>
    <path fill-rule="evenodd" clip-rule="evenodd" d="M8.86963 10.4322C8.86963 11.6232 9.26682 12.0199 10.4573 12.0199C11.6478 12.0199 12.045 11.6232 12.045 10.4322C12.045 9.24115 11.6478 8.84448 10.4573 8.84448C9.26682 8.84448 8.86963 9.24115 8.86963 10.4322Z" stroke="#BDBDBD" stroke-linecap="round" stroke-linejoin="round"/>
    <path d="M8.26953 4.31323H12.0446" stroke="#BDBDBD" stroke-linecap="round" stroke-linejoin="round"/>
    <path fill-rule="evenodd" clip-rule="evenodd" d="M5.90058 4.31256C5.90058 3.12205 5.50336 2.72485 4.31284 2.72485C3.1218 2.72485 2.72461 3.12205 2.72461 4.31256C2.72461 5.50361 3.1218 5.90028 4.31284 5.90028C5.50336 5.90028 5.90058 5.50361 5.90058 4.31256Z" stroke="#BDBDBD" stroke-linecap="round" stroke-linejoin="round"/>
</svg>
