<svg width="18" height="18" viewBox="0 0 18 18" fill="none" xmlns="http://www.w3.org/2000/svg">
    <path fill-rule="evenodd" clip-rule="evenodd" d="M8.88337 16.2465C6.11455 16.2465 3.75 15.8156 3.75 14.0901C3.75 12.3645 6.09955 10.7715 8.88337 10.7715C11.6523 10.7715 14.0168 12.349 14.0168 14.0746C14.0168 15.7995 11.6673 16.2465 8.88337 16.2465Z" stroke="#717171" stroke-linecap="round" stroke-linejoin="round"/>
    <path fill-rule="evenodd" clip-rule="evenodd" d="M8.87796 8.38031C10.6951 8.38031 12.1678 6.90755 12.1678 5.09051C12.1678 3.27346 10.6951 1.80005 8.87796 1.80005C7.06095 1.80005 5.58754 3.27346 5.58754 5.09051C5.58141 6.90141 7.04391 8.37416 8.85478 8.38031C8.86296 8.38031 8.87046 8.38031 8.87796 8.38031Z" stroke="#717171" stroke-linecap="round" stroke-linejoin="round"/>
</svg>
