<svg width="18" height="18" viewBox="0 0 18 18" fill="none" xmlns="http://www.w3.org/2000/svg">
    <path fill-rule="evenodd" clip-rule="evenodd" d="M7.16888 16.0922C4.41488 16.0922 2.06213 15.6759 2.06213 14.0079C2.06213 12.3399 4.39988 10.8369 7.16888 10.8369C9.92288 10.8369 12.2749 12.3257 12.2749 13.9929C12.2749 15.6602 9.93788 16.0922 7.16888 16.0922Z" stroke="#717171" stroke-linecap="round" stroke-linejoin="round"/>
    <path fill-rule="evenodd" clip-rule="evenodd" d="M7.1689 8.45814C8.97639 8.45814 10.4419 6.99261 10.4419 5.18511C10.4419 3.37761 8.97639 1.91211 7.1689 1.91211C5.3614 1.91211 3.8959 3.37761 3.8959 5.18511C3.88915 6.98661 5.3449 8.45214 7.14565 8.45814H7.1689Z" stroke="#717171" stroke-linecap="round" stroke-linejoin="round"/>
    <path d="M12.6009 7.55912C13.6532 7.27785 14.4287 6.3186 14.4287 5.1771C14.4294 3.9861 13.5842 2.9916 12.4607 2.76135" stroke="#717171" stroke-linecap="round" stroke-linejoin="round"/>
    <path d="M13.0956 10.2402C14.5866 10.2402 15.8601 11.2512 15.8601 12.1535C15.8601 12.6852 15.4213 13.2312 14.7538 13.388" stroke="#717171" stroke-linecap="round" stroke-linejoin="round"/>
</svg>
