<svg width="14" height="14" viewBox="0 0 14 14" fill="none" xmlns="http://www.w3.org/2000/svg">
    <g clip-path="url(#clip0_127_1814)">
        <path d="M13.4712 5.78287L7.76076 5.78259C7.50859 5.78259 7.3042 5.98696 7.3042 6.23912V8.06336C7.3042 8.31547 7.50859 8.51989 7.76073 8.51989H10.9765C10.6244 9.43375 9.96715 10.1991 9.12863 10.6854L10.4998 13.059C12.6994 11.7869 13.9998 9.55488 13.9998 7.05626C13.9998 6.70049 13.9736 6.44617 13.9212 6.1598C13.8813 5.94223 13.6924 5.78287 13.4712 5.78287Z" fill="#167EE6"/>
        <path d="M6.99999 11.2609C5.42625 11.2609 4.05239 10.401 3.31452 9.12866L0.940918 10.4968C2.14883 12.5903 4.41163 14 6.99999 14C8.26975 14 9.46788 13.6582 10.5 13.0624V13.0591L9.12879 10.6854C8.50157 11.0492 7.77576 11.2609 6.99999 11.2609Z" fill="#12B347"/>
        <path d="M10.5 13.0623V13.059L9.12879 10.6853C8.50158 11.0491 7.77582 11.2608 7 11.2608V13.9999C8.26976 13.9999 9.46794 13.6581 10.5 13.0623Z" fill="#0F993E"/>
        <path d="M2.73913 7.00004C2.73913 6.22433 2.95083 5.4986 3.31453 4.87141L0.940926 3.5033C0.341852 4.53216 0 5.72703 0 7.00004C0 8.27306 0.341852 9.46792 0.940926 10.4968L3.31453 9.12867C2.95083 8.50149 2.73913 7.77576 2.73913 7.00004Z" fill="#FFD500"/>
        <path d="M6.99999 2.73913C8.02623 2.73913 8.96888 3.10379 9.70516 3.71036C9.88681 3.85998 10.1508 3.84918 10.3172 3.68279L11.6097 2.39025C11.7985 2.20147 11.7851 1.89246 11.5834 1.71752C10.3498 0.647309 8.74471 0 6.99999 0C4.41163 0 2.14883 1.40976 0.940918 3.50325L3.31452 4.87137C4.05239 3.59898 5.42625 2.73913 6.99999 2.73913Z" fill="#FF4B26"/>
        <path d="M9.70517 3.71036C9.88682 3.85998 10.1508 3.84918 10.3172 3.68279L11.6097 2.39025C11.7985 2.20147 11.785 1.89246 11.5834 1.71752C10.3498 0.647281 8.74472 0 7 0V2.73913C8.02621 2.73913 8.96889 3.10379 9.70517 3.71036Z" fill="#D93F21"/>
    </g>
    <defs>
        <clipPath id="clip0_127_1814">
            <rect width="14" height="14" fill="white"/>
        </clipPath>
    </defs>
</svg>
