<svg width="24" height="24" viewBox="0 0 24 24" fill="none" xmlns="http://www.w3.org/2000/svg">
    <path d="M6.0708 16.459C6.0708 16.459 6.8828 14.822 8.0648 14.822C9.2468 14.822 9.8508 16.197 11.1608 16.197C12.4698 16.197 13.9388 12.749 15.4228 12.749C16.9048 12.749 17.9708 15.14 17.9708 15.14" stroke="white" stroke-linecap="round" stroke-linejoin="round"/>
    <path fill-rule="evenodd" clip-rule="evenodd" d="M10.1394 9.10487C10.1394 9.96487 9.44241 10.6629 8.58141 10.6629C7.72141 10.6629 7.02441 9.96487 7.02441 9.10487C7.02441 8.24487 7.72141 7.54688 8.58141 7.54688C9.44241 7.54788 10.1394 8.24487 10.1394 9.10487Z" stroke="white" stroke-linecap="round" stroke-linejoin="round"/>
    <path fill-rule="evenodd" clip-rule="evenodd" d="M2.75 12C2.75 18.937 5.063 21.25 12 21.25C18.937 21.25 21.25 18.937 21.25 12C21.25 5.063 18.937 2.75 12 2.75C5.063 2.75 2.75 5.063 2.75 12Z" stroke="white" stroke-linecap="round" stroke-linejoin="round"/>
</svg>
